<svg width="70.7" height="70" viewBox="0 0 70.7 70" xmlns="http://www.w3.org/2000/svg"><g id="svgGroup" stroke-linecap="round" fill-rule="evenodd" font-size="9pt" stroke="#ffb6e4" stroke-width="0.25mm" fill="#ffb6e4" style="stroke:#ffb6e4;stroke-width:0.25mm;fill:#ffb6e4"><path d="M 61.2 70 L 51.8 70 Q 50.2 70 49.75 69.45 Q 49.396 69.018 49.321 67.936 A 9.155 9.155 0 0 1 49.3 67.3 L 49.3 64.2 L 58 64.2 Q 61.1 64.2 61.9 62.9 Q 62.569 61.813 62.679 59.469 A 20.759 20.759 0 0 0 62.7 58.5 L 62.7 11.5 Q 62.7 9.068 62.207 7.744 A 3.662 3.662 0 0 0 61.9 7.1 Q 61.225 6.004 58.914 5.832 A 12.371 12.371 0 0 0 58 5.8 L 45.3 5.8 L 45.3 70 L 37.3 70 L 37.3 2.7 A 7.275 7.275 0 0 1 37.332 1.987 Q 37.401 1.288 37.619 0.873 A 1.31 1.31 0 0 1 37.85 0.55 A 1.424 1.424 0 0 1 38.31 0.254 Q 38.763 0.063 39.491 0.016 A 7.857 7.857 0 0 1 40 0 L 61.2 0 Q 66.4 0 68.55 2.15 Q 70.568 4.168 70.692 8.872 A 23.822 23.822 0 0 1 70.7 9.5 L 70.7 60.5 Q 70.7 65.7 68.55 67.85 Q 66.532 69.868 61.828 69.992 A 23.822 23.822 0 0 1 61.2 70 Z M 2.7 0 L 27.1 0 L 27.1 3.1 A 8.955 8.955 0 0 1 27.075 3.793 Q 26.995 4.829 26.65 5.25 Q 26.293 5.687 25.212 5.777 A 7.393 7.393 0 0 1 24.6 5.8 L 8 5.8 L 8 30.8 L 24.1 30.8 L 24.1 33.9 A 8.955 8.955 0 0 1 24.075 34.593 Q 23.995 35.629 23.65 36.05 Q 23.293 36.487 22.212 36.577 A 7.393 7.393 0 0 1 21.6 36.6 L 8 36.6 L 8 67.3 A 7.275 7.275 0 0 1 7.968 68.014 Q 7.899 68.712 7.681 69.128 A 1.31 1.31 0 0 1 7.45 69.45 A 1.424 1.424 0 0 1 6.99 69.746 Q 6.537 69.937 5.809 69.985 A 7.857 7.857 0 0 1 5.3 70 L 0 70 L 0 2.7 A 7.275 7.275 0 0 1 0.032 1.987 Q 0.101 1.288 0.319 0.873 A 1.31 1.31 0 0 1 0.55 0.55 A 1.424 1.424 0 0 1 1.01 0.254 Q 1.463 0.063 2.191 0.016 A 7.857 7.857 0 0 1 2.7 0 Z" vector-effect="non-scaling-stroke"/></g></svg>